<?xml version="1.0" standalone="no"?>
<!DOCTYPE svg PUBLIC "-//W3C//DTD SVG 20010904//EN"
 "http://www.w3.org/TR/2001/REC-SVG-20010904/DTD/svg10.dtd">
<svg version="1.0" xmlns="http://www.w3.org/2000/svg"
 width="1000.000000pt" height="1000.000000pt" viewBox="0 0 1000.000000 1000.000000"
 preserveAspectRatio="xMidYMid meet">
<metadata>
Created by potrace 1.11, written by Peter Selinger 2001-2013
</metadata>
<g transform="translate(0.000000,1000.000000) scale(0.100000,-0.100000)"
fill="#000000" stroke="none">
<path d="M2601 4910 l0 -3550 670 0 669 0 0 1409 0 1409 1373 0 c754 0 1382 1
1394 1 l21 1 0 640 0 640 -22 4 c-11 3 -639 4 -1394 3 l-1372 -2 0 852 0 853
1662 2 1663 3 0 640 0 640 -2332 3 -2331 2 -1 -3550z"/>
</g>
</svg>
