<?xml version="1.0" standalone="no"?>
<!DOCTYPE svg PUBLIC "-//W3C//DTD SVG 20010904//EN"
 "http://www.w3.org/TR/2001/REC-SVG-20010904/DTD/svg10.dtd">
<svg version="1.0" xmlns="http://www.w3.org/2000/svg"
 width="1600.000000pt" height="1600.000000pt" viewBox="0 0 1600.000000 1600.000000"
 preserveAspectRatio="xMidYMid meet">
<metadata>
Created by potrace 1.11, written by Peter Selinger 2001-2013
</metadata>
<g transform="translate(0.000000,1600.000000) scale(0.100000,-0.100000)"
fill="#000000" stroke="none">
<path d="M7365 13714 c-5 -1 -69 -4 -140 -7 -94 -3 -140 -9 -162 -21 -18 -9
-55 -16 -83 -16 -27 0 -50 -4 -50 -9 0 -5 15 -21 33 -35 17 -14 37 -31 42 -36
6 -6 16 -16 23 -23 7 -6 28 -27 47 -45 19 -19 35 -38 35 -42 0 -5 9 -12 20
-15 11 -3 20 -10 20 -14 0 -12 67 -81 79 -81 5 0 12 -9 16 -19 3 -11 14 -23
23 -26 9 -3 33 -26 52 -50 19 -24 40 -44 46 -44 6 -1 16 -12 22 -26 6 -14 18
-25 25 -25 8 0 20 -11 27 -25 7 -14 19 -25 26 -25 7 0 16 -9 19 -20 3 -11 13
-20 22 -20 8 0 17 -9 20 -20 3 -10 13 -22 24 -25 10 -3 21 -15 24 -25 3 -10
15 -22 25 -25 10 -3 22 -15 25 -25 3 -10 15 -22 26 -25 10 -4 19 -13 19 -21 0
-8 11 -20 25 -26 13 -6 27 -19 30 -30 4 -10 13 -18 21 -18 8 0 14 -4 14 -9 0
-12 80 -91 92 -91 4 0 8 -7 8 -16 0 -9 9 -18 20 -21 10 -3 22 -13 25 -24 3
-10 15 -21 26 -24 10 -4 19 -12 19 -19 0 -7 11 -19 25 -26 13 -7 23 -16 22
-20 -3 -9 172 -180 184 -180 5 0 8 -4 6 -8 -3 -11 67 -82 82 -82 6 0 11 -7 11
-15 0 -9 11 -21 25 -27 14 -6 25 -15 25 -20 0 -12 169 -178 181 -178 5 0 8 -4
7 -8 -2 -5 41 -51 95 -104 53 -53 97 -101 97 -107 0 -6 4 -10 8 -9 4 2 31 -21
59 -49 29 -29 57 -53 63 -53 5 0 9 -4 8 -8 -4 -11 113 -128 124 -124 4 1 8 -3
8 -9 0 -6 65 -75 145 -155 80 -79 145 -148 145 -154 0 -5 5 -10 10 -10 12 0
230 -220 230 -232 0 -4 6 -8 14 -8 8 0 17 -9 21 -19 3 -11 15 -23 26 -26 10
-4 19 -10 19 -15 0 -5 19 -26 41 -47 77 -71 159 -156 159 -164 0 -5 5 -9 10
-9 6 0 26 -16 46 -35 19 -19 32 -35 29 -35 -4 0 0 -7 9 -15 8 -8 17 -15 20
-15 8 0 76 -72 76 -81 0 -4 9 -11 20 -14 11 -3 20 -13 20 -21 0 -8 4 -14 8
-14 11 0 82 -68 82 -79 0 -4 11 -14 25 -21 13 -7 27 -21 31 -32 3 -10 11 -18
18 -18 7 0 19 -11 26 -25 7 -14 19 -25 26 -25 7 0 15 -9 19 -19 3 -11 15 -23
26 -26 10 -4 19 -10 19 -14 0 -13 67 -81 79 -81 6 0 11 -4 11 -10 0 -12 169
-180 181 -180 5 0 9 -4 9 -8 0 -12 169 -182 180 -182 6 0 10 -5 10 -11 0 -7
16 -27 36 -46 42 -39 58 -31 42 21 -5 17 -9 74 -8 126 1 52 1 104 0 115 -2 28
-2 65 0 95 0 14 0 46 -2 73 -2 26 1 47 5 47 5 0 5 5 2 10 -4 6 -6 43 -5 83 1
39 1 81 0 92 -2 26 -2 64 -1 95 1 14 1 32 0 40 0 8 -1 38 0 65 0 28 0 64 0 80
-1 17 0 41 0 55 2 39 3 283 1 305 -2 26 -2 64 -1 95 1 14 1 32 0 40 0 8 -1 38
0 65 0 28 0 64 0 80 -1 17 0 41 1 55 0 14 0 46 -2 73 -2 26 1 47 5 47 5 0 5 5
2 10 -4 6 -6 43 -5 83 1 39 1 81 0 92 -2 26 -2 64 -1 95 1 14 1 32 0 40 0 8
-1 38 0 65 0 28 0 64 0 80 -1 17 0 41 0 55 2 39 3 283 1 305 -2 26 -2 64 -1
95 1 14 1 32 0 40 0 8 0 38 0 65 1 28 0 61 -2 75 -2 14 0 37 4 51 4 15 4 32 0
38 -4 6 -4 39 2 73 5 33 5 63 0 67 -4 3 -13 15 -19 26 -6 10 -25 23 -42 27
-18 5 -32 12 -32 17 0 5 -15 14 -32 22 -18 7 -46 23 -61 36 -16 13 -37 23 -47
23 -11 0 -24 9 -30 20 -6 12 -21 20 -35 20 -14 0 -34 9 -45 20 -11 11 -35 24
-53 27 -17 4 -38 15 -47 24 -8 10 -30 21 -48 24 -18 3 -41 14 -52 25 -11 11
-26 20 -32 21 -31 2 -51 9 -68 24 -10 9 -35 21 -55 26 -21 6 -44 17 -52 25 -7
7 -30 16 -51 20 -20 3 -46 14 -57 24 -11 10 -41 21 -67 24 -27 4 -48 12 -48
17 0 13 -41 28 -86 31 -21 1 -41 10 -49 20 -8 12 -31 21 -66 25 -30 3 -66 14
-81 25 -15 10 -46 21 -69 23 -23 2 -60 13 -83 24 -22 10 -67 22 -98 26 -32 3
-58 10 -58 15 0 15 -54 28 -135 31 -30 1 -55 5 -55 9 0 15 -57 31 -124 36 -93
6 -102 8 -117 21 -19 15 -68 22 -184 27 -55 3 -116 11 -135 19 -19 9 -60 18
-90 22 -50 7 -1052 15 -1075 9z"/>
<path d="M6336 13560 c-16 -5 -32 -14 -35 -19 -4 -5 -29 -13 -56 -16 -64 -8
-87 -14 -105 -30 -8 -7 -38 -15 -67 -19 -63 -7 -80 -13 -87 -32 -3 -9 -20 -14
-44 -14 -22 0 -59 -11 -86 -25 -26 -14 -59 -25 -72 -25 -25 0 -84 -28 -84 -40
0 -3 -19 -6 -43 -8 -26 -1 -48 -9 -57 -21 -9 -10 -33 -21 -55 -25 -21 -4 -50
-16 -63 -27 -14 -10 -35 -19 -48 -19 -13 0 -33 -9 -44 -20 -11 -11 -34 -22
-52 -25 -18 -4 -42 -14 -53 -24 -11 -10 -39 -23 -61 -29 -23 -7 -45 -19 -48
-27 -3 -8 -16 -15 -29 -15 -13 0 -38 -11 -57 -25 -19 -14 -40 -25 -48 -25 -8
0 -27 -11 -44 -25 -16 -14 -38 -25 -49 -25 -10 0 -24 -9 -31 -20 -7 -11 -22
-20 -34 -20 -11 0 -31 -11 -43 -24 -13 -13 -35 -27 -49 -31 -14 -3 -31 -13
-37 -21 -6 -8 -18 -16 -26 -17 -9 -2 -31 -15 -48 -30 -18 -15 -38 -27 -45 -27
-6 0 -19 -9 -29 -20 -9 -11 -23 -20 -30 -20 -8 0 -24 -11 -37 -25 -13 -14 -32
-25 -43 -25 -10 0 -21 -9 -24 -20 -3 -11 -13 -20 -23 -20 -9 0 -31 -13 -48
-30 -18 -16 -38 -30 -45 -30 -6 0 -18 -9 -25 -20 -7 -11 -19 -20 -27 -20 -7 0
-21 -10 -30 -22 -8 -13 -19 -23 -23 -23 -7 0 -100 -71 -112 -86 -3 -3 -15 -11
-28 -18 -12 -7 -20 -16 -17 -22 4 -5 -1 -9 -9 -9 -9 0 -26 -11 -38 -25 -12
-14 -26 -25 -31 -25 -12 0 -37 -26 -37 -39 0 -6 -7 -11 -15 -11 -8 0 -22 -11
-31 -25 -9 -14 -20 -25 -25 -25 -5 0 -43 -34 -85 -75 -41 -41 -77 -75 -79 -75
-7 0 -125 -122 -125 -130 0 -5 -9 -12 -20 -15 -11 -3 -20 -10 -20 -14 0 -5
-17 -26 -37 -48 -21 -21 -74 -79 -118 -128 -44 -49 -92 -101 -107 -116 -16
-15 -28 -30 -28 -34 0 -4 -10 -20 -22 -35 -13 -15 -34 -42 -48 -60 -14 -18
-36 -45 -50 -60 -66 -73 -71 -82 -59 -96 7 -9 17 -11 28 -5 10 6 1139 10 2756
10 1507 0 2744 0 2748 0 4 1 -6 16 -22 34 -17 17 -31 35 -31 40 0 4 -4 7 -9 7
-4 0 -265 258 -579 573 -314 314 -790 791 -1057 1060 l-486 487 -47 -1 c-26 0
-60 -5 -76 -9z"/>
<path d="M11251 9820 c0 -1524 -3 -2775 -6 -2780 -3 -5 -1 -11 4 -14 5 -4 162
147 348 335 186 187 343 346 350 352 192 190 313 312 313 316 1 3 18 19 38 35
20 17 53 49 72 72 19 23 45 48 58 55 12 7 22 16 22 20 0 11 60 69 71 69 5 0 9
4 9 8 0 11 181 192 192 192 4 0 8 4 8 8 0 11 260 272 271 272 5 0 9 4 9 10 0
11 161 170 172 170 4 0 8 4 8 9 0 5 63 72 140 149 81 80 140 147 140 158 0 11
-9 33 -20 51 -10 17 -22 56 -25 85 -8 73 -16 101 -31 113 -7 6 -16 37 -19 70
-3 33 -14 73 -25 90 -10 16 -20 50 -23 75 -4 25 -6 46 -6 47 -1 1 -8 8 -16 16
-8 8 -16 25 -19 38 -10 57 -20 86 -37 111 -11 14 -19 39 -19 55 0 17 -9 38
-20 48 -11 10 -20 30 -20 45 0 15 -11 44 -25 65 -15 20 -24 39 -21 42 7 8 -16
66 -36 87 -10 11 -18 31 -18 45 0 13 -9 34 -19 45 -11 12 -21 30 -23 41 -1 11
-12 34 -24 50 -11 17 -24 42 -28 58 -3 15 -15 36 -26 47 -11 11 -20 30 -20 43
0 12 -8 27 -19 34 -10 6 -21 27 -25 45 -3 19 -15 41 -26 50 -11 10 -23 30 -26
45 -4 15 -16 34 -26 41 -10 7 -16 17 -13 22 3 5 -6 21 -20 36 -22 24 -29 37
-27 55 1 3 -12 21 -29 40 -16 19 -29 39 -29 45 0 6 -9 19 -20 29 -11 10 -20
26 -20 36 0 10 -9 23 -20 29 -11 6 -23 22 -26 35 -3 14 -17 34 -30 44 -13 10
-20 21 -17 25 4 4 -5 18 -19 31 -15 13 -29 34 -33 45 -3 11 -10 20 -15 20 -5
0 -19 18 -30 40 -11 22 -25 40 -30 40 -6 0 -10 9 -10 19 0 11 -9 22 -19 26
-11 3 -22 14 -25 23 -3 9 -19 31 -35 48 -17 18 -28 34 -25 37 3 3 -6 13 -20
22 -14 10 -26 23 -26 31 0 8 -9 19 -20 26 -11 7 -20 17 -20 22 0 5 -10 18 -22
30 -13 12 -59 62 -103 110 -44 48 -111 120 -150 160 -38 39 -69 74 -67 79 1 4
-3 7 -8 7 -6 0 -33 23 -60 50 -27 28 -51 50 -53 50 -3 0 -29 24 -59 53 -85 82
-238 215 -267 232 -17 10 -41 31 -85 73 -13 12 -28 22 -33 22 -6 0 -24 14 -41
30 -18 17 -36 30 -41 30 -7 0 -10 -996 -10 -2770z"/>
<path d="M5900 10957 c-32 -13 -3020 -17 -3037 -4 -8 6 -23 -2 -46 -25 -34
-33 -47 -53 -87 -136 -12 -24 -28 -46 -36 -49 -8 -3 -14 -15 -14 -27 0 -12
-11 -37 -25 -56 -14 -19 -25 -41 -25 -49 0 -8 -9 -25 -21 -37 -17 -19 -24 -34
-28 -65 -1 -3 -10 -16 -21 -29 -11 -13 -20 -28 -21 -34 -2 -32 -10 -50 -28
-67 -12 -11 -21 -32 -21 -48 0 -15 -8 -36 -19 -45 -17 -16 -36 -69 -32 -90 1
-5 -8 -19 -19 -31 -12 -13 -22 -37 -24 -54 -1 -18 -10 -41 -19 -51 -9 -11 -18
-30 -21 -42 -9 -50 -19 -78 -26 -78 -9 0 -20 -33 -25 -70 -2 -14 -13 -45 -25
-69 -13 -23 -24 -61 -26 -83 -2 -23 -10 -48 -18 -57 -17 -18 -25 -48 -30 -110
-2 -24 -9 -47 -14 -50 -18 -11 -34 -64 -33 -106 1 -41 -16 -95 -29 -95 -3 0
-7 -6 -8 -12 -1 -7 -4 -39 -7 -71 -3 -33 -11 -69 -17 -80 -7 -12 -13 -24 -13
-27 -6 -25 -16 -106 -20 -152 -2 -32 -11 -68 -20 -81 -10 -15 -17 -56 -20
-108 -11 -188 -15 -228 -25 -253 -22 -58 -23 -99 -23 -616 0 -547 2 -601 24
-641 6 -13 13 -69 15 -127 1 -57 4 -106 7 -109 6 -6 257 246 257 258 0 5 4 9
9 9 11 0 231 220 231 231 0 5 6 9 13 10 6 0 28 20 47 44 19 24 41 44 48 44 7
1 18 12 24 26 6 14 15 25 20 25 11 0 128 121 128 132 0 4 7 8 15 8 9 0 21 11
27 25 6 14 15 25 20 25 12 0 78 67 78 80 0 5 6 10 14 10 8 0 18 9 21 20 3 11
10 20 14 20 4 0 25 18 47 40 21 21 56 56 76 77 21 21 43 43 50 50 7 6 27 27
45 46 17 19 34 33 37 30 3 -3 11 6 17 21 7 14 18 26 24 26 6 0 17 11 23 25 6
14 18 25 27 25 8 0 15 4 15 8 0 11 68 82 78 82 5 0 15 11 22 25 7 14 19 25 26
25 7 0 15 9 19 19 3 11 15 23 26 26 10 4 19 10 19 14 0 10 121 131 131 131 4
0 10 9 14 19 3 11 15 23 25 26 10 3 22 15 25 26 4 10 12 19 19 19 7 0 19 11
26 25 7 13 21 27 32 31 10 3 18 9 18 13 0 13 67 81 79 81 6 0 11 6 11 13 0 8
11 20 25 27 14 7 25 19 25 26 0 7 8 15 18 18 11 4 25 18 32 31 7 14 19 25 27
25 7 0 13 4 13 10 0 12 118 130 130 130 6 0 10 4 10 9 0 11 360 373 360 363 1
-4 8 5 16 21 8 15 21 27 28 27 8 0 16 9 19 21 3 11 15 23 26 26 12 3 21 9 21
13 0 7 25 33 132 138 7 7 73 73 146 147 73 74 137 135 142 135 6 0 10 9 10 20
0 11 4 19 8 17 10 -3 412 399 412 412 0 5 9 11 21 14 11 3 23 15 26 26 3 12 9
21 13 21 13 0 80 66 80 78 0 7 5 12 12 12 13 0 88 77 88 91 0 5 5 9 10 9 15 0
80 64 80 79 0 6 7 11 15 11 8 0 22 11 31 25 9 14 23 25 30 25 15 0 18 18 6 36
-5 8 -14 9 -32 1z"/>
<path d="M4308 8743 c-9 -10 -22 -22 -28 -28 -6 -5 -37 -38 -70 -72 -32 -35
-64 -63 -69 -63 -6 0 -11 -4 -11 -9 0 -5 -317 -327 -705 -716 -388 -388 -705
-710 -705 -714 0 -5 -9 -11 -21 -14 -11 -3 -23 -15 -26 -26 -3 -12 -9 -21 -14
-21 -11 0 -269 -258 -269 -270 0 -6 -4 -10 -10 -10 -13 0 -130 -117 -130 -130
0 -6 -11 -15 -25 -20 -14 -5 -25 -16 -25 -25 0 -8 -5 -15 -11 -15 -18 0 -79
-72 -75 -89 5 -25 19 -55 28 -62 9 -6 11 -15 22 -108 3 -24 14 -56 23 -70 9
-14 19 -48 21 -76 2 -28 11 -62 22 -77 11 -14 22 -50 25 -78 3 -29 15 -64 25
-79 10 -14 22 -46 25 -71 4 -25 10 -47 14 -50 15 -9 31 -49 31 -74 0 -13 7
-32 15 -40 9 -9 23 -39 31 -68 9 -29 22 -60 29 -68 8 -9 17 -31 20 -49 3 -19
15 -45 25 -59 11 -13 20 -34 20 -46 0 -12 9 -32 19 -43 11 -11 24 -39 30 -61
6 -22 18 -45 25 -52 8 -6 18 -24 21 -40 3 -15 15 -36 26 -46 10 -9 19 -27 19
-39 0 -12 11 -32 25 -45 13 -12 24 -25 23 -29 -2 -23 5 -42 27 -67 14 -16 25
-36 25 -45 0 -9 9 -24 20 -34 11 -10 20 -24 20 -31 0 -7 11 -26 25 -42 14 -17
25 -37 25 -46 0 -9 6 -19 14 -22 8 -3 20 -20 27 -37 7 -18 19 -40 27 -50 15
-17 20 -25 57 -87 11 -18 28 -41 38 -52 9 -10 17 -21 17 -26 0 -4 14 -22 30
-40 17 -18 30 -39 30 -45 0 -7 9 -19 20 -27 11 -8 20 -22 20 -30 0 -9 10 -26
23 -38 35 -34 53 -55 73 -87 10 -16 27 -36 36 -43 10 -7 18 -19 18 -27 0 -8 9
-19 20 -25 11 -6 20 -15 20 -21 0 -6 19 -30 43 -54 23 -24 58 -63 77 -86 19
-24 54 -63 78 -87 23 -24 42 -45 42 -48 0 -9 260 -264 269 -264 5 0 13 -9 16
-20 3 -11 10 -20 15 -20 8 0 92 -73 151 -132 15 -15 29 -25 32 -22 2 3 12 -7
21 -21 9 -14 21 -25 27 -25 6 0 20 -11 31 -25 11 -14 25 -25 31 -25 7 0 18 -9
25 -20 7 -11 18 -20 26 -20 7 0 22 -11 32 -25 10 -14 23 -25 28 -25 6 0 21
-11 35 -24 15 -13 35 -26 46 -30 20 -6 20 -1 20 2779 0 1532 -2 2785 -5 2785
-3 0 -13 -8 -22 -17z"/>
<path d="M13528 8734 c-45 -53 -143 -149 -150 -146 -5 1 -8 -2 -8 -7 0 -12
-226 -241 -238 -241 -5 0 -12 -9 -15 -20 -3 -11 -12 -20 -21 -20 -9 0 -16 -5
-16 -10 0 -14 -176 -190 -190 -190 -5 0 -9 -3 -8 -7 2 -5 -70 -81 -160 -171
-89 -89 -162 -167 -162 -172 0 -6 -5 -10 -11 -10 -15 0 -89 -74 -89 -89 0 -6
-5 -11 -10 -11 -14 0 -80 -66 -80 -80 0 -5 -4 -10 -9 -10 -13 0 -141 -128
-141 -142 0 -6 -3 -9 -6 -5 -8 7 -34 -17 -34 -32 0 -6 -4 -11 -9 -11 -5 0 -48
-38 -95 -85 -48 -47 -83 -85 -79 -85 4 0 -7 -9 -24 -20 -18 -11 -33 -27 -33
-35 0 -8 -4 -15 -10 -15 -12 0 -220 -209 -220 -221 0 -5 -7 -9 -15 -9 -9 0
-21 -11 -27 -25 -6 -14 -15 -25 -20 -25 -12 0 -78 -67 -78 -79 0 -5 -8 -12
-17 -16 -10 -3 -34 -26 -53 -50 -19 -25 -40 -45 -47 -45 -6 0 -14 -9 -18 -19
-3 -11 -15 -23 -26 -26 -10 -4 -19 -10 -19 -14 0 -12 -66 -77 -84 -84 -9 -4
-16 -13 -16 -21 0 -8 -9 -17 -19 -21 -11 -3 -23 -15 -26 -25 -3 -10 -15 -22
-25 -25 -10 -3 -22 -15 -25 -25 -3 -10 -14 -22 -24 -25 -11 -3 -21 -15 -24
-25 -3 -11 -12 -20 -20 -20 -9 0 -18 -9 -22 -19 -3 -11 -15 -23 -25 -26 -10
-3 -22 -15 -25 -25 -3 -10 -15 -22 -26 -25 -10 -4 -19 -13 -19 -22 0 -8 -9
-17 -20 -20 -10 -3 -22 -13 -25 -24 -3 -10 -15 -21 -26 -24 -10 -4 -19 -11
-19 -16 0 -5 -13 -21 -30 -35 -16 -15 -27 -31 -24 -36 3 -5 2 -8 -3 -7 -13 3
-43 -12 -43 -22 0 -10 -70 -79 -82 -79 -4 0 -8 -5 -8 -10 0 -12 -219 -230
-231 -230 -3 0 -9 -9 -12 -20 -3 -11 -12 -20 -20 -20 -9 0 -18 -9 -22 -19 -3
-11 -14 -23 -24 -26 -11 -3 -21 -15 -24 -25 -3 -11 -12 -20 -19 -20 -8 0 -20
-11 -26 -25 -6 -14 -18 -25 -27 -25 -8 0 -15 -4 -15 -10 0 -12 -73 -85 -82
-82 -5 1 -8 -3 -8 -9 0 -14 -76 -89 -90 -89 -6 0 -10 -5 -10 -11 0 -6 -65 -76
-145 -155 -80 -78 -145 -147 -145 -153 0 -6 -5 -11 -10 -11 -6 0 -42 -31 -79
-70 -38 -38 -73 -70 -77 -70 -5 0 -15 -9 -22 -20 -10 -17 -10 -21 0 -25 7 -2
710 -3 1562 -2 1513 2 1549 2 1560 21 6 11 19 28 29 38 9 10 17 23 17 28 0 20
3 25 20 37 10 7 20 26 23 42 4 16 15 38 25 48 11 10 24 33 30 52 7 18 19 39
27 45 8 6 16 20 18 32 1 11 13 33 25 49 12 15 22 38 22 51 0 13 4 24 10 24 12
0 40 53 40 76 0 10 9 27 19 38 11 12 22 37 25 56 3 19 13 40 22 47 9 7 18 26
20 43 2 18 13 44 24 59 10 16 24 47 29 71 5 24 14 46 19 49 10 6 20 35 28 77
3 14 11 33 19 41 8 8 15 15 15 16 1 1 3 20 6 42 3 22 15 56 27 75 12 19 23 54
25 78 1 24 12 56 23 71 12 17 22 49 25 81 2 29 13 67 23 84 10 17 21 56 24 86
3 30 14 75 25 100 11 25 22 68 23 95 2 28 11 68 20 90 10 22 21 78 24 124 3
45 12 95 19 110 19 36 25 75 31 209 3 62 10 125 17 140 6 15 12 36 13 47 2 11
6 34 9 50 9 40 9 1024 1 1094 -3 30 -13 74 -21 98 -9 25 -17 85 -18 134 -2 49
-5 92 -9 95 -3 3 -16 -7 -29 -22z"/>
<path d="M4736 6031 c-4 -5 -4 -22 0 -37 4 -15 7 -719 8 -1565 1 -845 4 -1540
7 -1544 4 -3 19 -8 35 -11 15 -3 34 -13 41 -23 7 -10 24 -22 38 -25 14 -4 34
-15 45 -26 11 -11 28 -20 38 -20 11 0 27 -9 36 -19 10 -11 32 -23 50 -27 17
-4 37 -15 44 -25 7 -11 24 -19 37 -19 13 0 36 -11 51 -25 15 -14 32 -25 38
-26 31 -2 52 -9 61 -22 6 -8 26 -18 45 -22 19 -4 44 -15 55 -25 11 -10 37 -22
58 -25 21 -4 41 -14 44 -21 3 -8 23 -17 44 -20 21 -4 53 -17 71 -30 18 -13 46
-24 63 -24 18 0 42 -9 55 -20 13 -11 28 -20 34 -21 43 -3 75 -12 98 -29 15
-11 49 -22 79 -24 33 -3 56 -10 61 -20 8 -14 20 -18 100 -30 14 -2 37 -12 51
-21 22 -14 56 -21 135 -27 6 -1 12 -5 12 -8 0 -13 54 -29 118 -35 34 -3 77
-14 95 -25 21 -12 58 -20 107 -23 41 -3 92 -12 114 -22 21 -9 66 -18 100 -20
143 -11 190 -16 200 -24 22 -17 74 -24 196 -26 69 -2 217 -6 330 -10 239 -7
274 -7 520 0 527 16 468 12 532 34 21 7 42 10 47 7 5 -4 12 -2 15 3 5 7 -138
161 -149 161 -7 0 -75 73 -75 81 0 4 -9 11 -20 14 -11 3 -20 11 -20 16 0 13
-67 79 -80 79 -5 0 -10 4 -10 8 0 12 -118 132 -129 132 -5 0 -13 9 -16 20 -3
11 -10 20 -14 20 -10 0 -81 69 -81 79 0 4 -11 14 -25 21 -14 7 -25 19 -25 26
0 7 -9 16 -20 19 -11 3 -20 10 -20 14 0 11 -209 221 -220 221 -6 0 -10 4 -10
9 0 12 -223 236 -232 234 -4 -2 -8 6 -8 16 0 11 -9 23 -20 26 -11 3 -25 15
-30 26 -6 10 -17 19 -25 19 -8 0 -15 4 -15 10 0 13 -692 706 -702 702 -4 -1
-8 6 -8 16 0 11 -11 24 -25 30 -14 6 -25 18 -25 27 0 8 -5 15 -12 15 -13 0
-88 77 -88 91 0 5 -6 9 -14 9 -7 0 -21 11 -30 25 -9 14 -23 25 -31 25 -8 0
-15 7 -15 15 0 8 -9 19 -19 25 -11 5 -23 19 -26 30 -3 11 -11 20 -16 20 -11 0
-179 168 -179 180 0 4 -9 10 -20 13 -11 3 -20 12 -20 20 0 9 -9 18 -19 22 -11
3 -23 14 -26 24 -3 11 -15 21 -25 24 -11 3 -20 12 -20 19 0 8 -11 21 -25 28
-14 7 -25 19 -25 26 0 7 -9 15 -19 19 -11 3 -23 14 -26 24 -3 10 -17 23 -31
30 -14 6 -22 15 -19 21 3 5 -4 14 -15 20 -22 12 -80 69 -80 79 -1 3 -21 22
-45 41 -25 19 -45 40 -45 47 0 6 -9 14 -19 18 -11 3 -23 15 -26 25 -3 10 -15
22 -25 25 -10 3 -22 15 -25 25 -3 10 -15 22 -25 25 -10 3 -22 15 -25 26 -4 10
-12 19 -19 19 -7 0 -18 11 -26 24 -7 13 -21 27 -31 29 -11 3 -19 12 -19 20 0
9 -9 19 -20 22 -11 3 -20 13 -20 21 0 8 -11 20 -25 26 -13 6 -27 19 -30 30 -4
10 -12 18 -19 18 -7 0 -18 11 -24 25 -6 14 -18 25 -27 25 -8 0 -15 6 -15 13 0
8 -11 20 -25 27 -14 7 -25 16 -25 20 0 11 -118 130 -128 130 -5 0 -12 9 -15
21 -3 11 -15 23 -26 26 -12 3 -21 10 -21 15 0 13 -68 78 -80 78 -5 0 -11 9
-15 19 -3 11 -15 23 -26 26 -10 4 -19 11 -19 16 0 13 -67 79 -80 79 -5 0 -10
4 -10 10 0 17 -118 132 -124 121z"/>
<path d="M6960 4400 c-11 -6 124 -147 538 -561 304 -304 552 -556 552 -560 0
-5 10 -14 23 -20 12 -7 25 -17 29 -22 3 -6 63 -67 132 -136 146 -145 138 -137
183 -185 19 -20 39 -36 44 -36 5 0 9 -4 9 -10 0 -11 170 -180 182 -180 4 0 8
-4 8 -10 0 -12 118 -130 130 -130 5 0 11 -9 15 -19 3 -11 15 -23 26 -26 10 -4
19 -11 19 -17 0 -14 65 -78 80 -78 5 0 10 -4 10 -10 0 -5 39 -48 88 -97 l87
-87 57 -2 c32 -1 60 2 63 7 3 4 12 6 20 3 8 -3 29 3 47 14 18 11 57 23 87 26
30 3 62 13 71 21 8 8 36 17 60 20 53 8 100 24 100 35 0 5 26 12 58 15 33 4 65
15 77 25 11 10 40 21 65 25 25 4 54 15 65 25 11 10 39 20 63 23 24 2 48 12 55
21 12 16 32 24 70 25 9 1 25 9 36 20 10 10 34 21 54 25 19 4 40 13 47 21 7 8
31 20 54 26 22 6 49 20 59 30 10 11 22 17 27 14 5 -3 11 -1 15 4 3 6 12 8 20
5 7 -3 18 3 23 13 6 10 30 24 55 31 25 8 48 20 51 27 2 7 19 16 36 20 17 4 40
16 50 28 11 11 20 18 20 14 0 -4 14 -1 30 8 17 9 30 20 30 24 0 5 14 12 30 16
17 4 42 18 55 31 13 13 32 24 42 24 10 0 25 9 33 20 8 10 27 22 42 25 16 4 33
15 38 26 6 10 17 19 25 19 8 0 41 20 74 45 32 25 64 45 69 45 5 0 20 11 33 25
13 13 29 25 36 25 7 0 21 10 33 22 11 12 26 23 33 24 8 1 26 12 40 25 14 13
40 35 57 49 17 14 42 35 56 48 14 12 31 22 39 22 8 0 15 5 15 10 0 6 16 20 35
31 19 12 35 27 35 35 0 8 6 14 14 14 7 0 36 21 65 48 86 79 113 102 122 102 4
0 11 9 14 20 3 11 11 20 17 20 6 0 30 20 54 44 23 24 52 49 63 56 12 6 19 15
16 21 -4 5 -2 9 3 9 12 0 102 89 102 101 0 5 7 9 15 9 8 0 15 4 15 8 0 5 19
29 43 54 23 25 71 78 106 119 36 41 73 83 83 94 64 68 108 122 108 132 0 7 9
17 20 23 11 6 20 17 20 24 0 7 23 36 50 65 28 28 48 56 45 61 -4 6 -22 8 -43
4 -45 -9 -5435 -10 -5448 -1 -6 3 -16 2 -24 -3z"/>
</g>
</svg>
